<svg xmlns="http://www.w3.org/2000/svg" width="97.666" height="34.808" viewBox="0 0 97.666 34.808">
  <path id="cdf78f4eb16a484" d="M148.383,396.935a11.934,11.934,0,0,1-7.153-2.391,14.285,14.285,0,0,1-1.486-1.487,9.286,9.286,0,0,1-1.611-2.9c-1.053-3.155-.511-7.3,1.551-11.84,1.765-3.89,4.49-7.749,9.242-13.092.7-.786,2.785-3.086,2.8-3.086s-.109.2-.252.437A28.01,28.01,0,0,0,148.6,369.2c-.925,3.387-.814,6.293.327,8.547a8.349,8.349,0,0,0,3.653,3.641c2.655,1.3,6.543,1.409,11.291.315.327-.076,16.525-4.376,35.995-9.555s35.4-9.415,35.406-9.412-45.235,19.363-68.721,29.406c-3.719,1.59-4.714,1.992-6.462,2.606A32.767,32.767,0,0,1,148.383,396.935Z" transform="translate(-137.61 -362.141)" fill="#fff"/>
</svg>
